<?xml version="1.0" encoding="utf-8"?>
<!-- Generator: Adobe Illustrator 26.2.1, SVG Export Plug-In . SVG Version: 6.00 Build 0)  -->
<svg version="1.1" id="레이어_1" xmlns="http://www.w3.org/2000/svg" xmlns:xlink="http://www.w3.org/1999/xlink" x="0px"
	 y="0px" viewBox="0 0 30 30" style="enable-background:new 0 0 30 30;" xml:space="preserve">
<style type="text/css">
	.st0{fill:#03226E;}
</style>
<path class="st0" d="M3.8,0h22.5C28.3,0,30,1.7,30,3.8v22.5c0,2.1-1.7,3.8-3.8,3.8H3.8C1.7,30,0,28.3,0,26.2V3.8C0,1.7,1.7,0,3.8,0z
	 M14.2,17.2c0.1,0.1,0.3,0.4,0.5,0.7c0.2,0.3,0.5,0.3,0.7,0c0.2-0.3,0.4-0.6,0.5-0.7c0.1-0.1,0.2-0.2,0.3-0.2s0.5-0.1,0.8-0.2
	c0.3-0.1,0.5-0.4,0.4-0.7c-0.1-0.3-0.2-0.6-0.2-0.7c0-0.1,0-0.2,0-0.3c0-0.1,0.1-0.4,0.2-0.7c0.1-0.3-0.1-0.7-0.4-0.7
	s-0.7-0.2-0.8-0.2c-0.1,0-0.3-0.1-0.3-0.2c-0.1-0.1-0.3-0.4-0.5-0.7c-0.2-0.3-0.5-0.3-0.7,0c-0.2,0.3-0.4,0.6-0.5,0.7
	c-0.1,0.1-0.2,0.2-0.3,0.2c-0.1,0-0.5,0.1-0.8,0.2s-0.5,0.4-0.4,0.7c0.1,0.3,0.2,0.6,0.2,0.7c0,0.1,0,0.2,0,0.3
	c0,0.1-0.1,0.4-0.2,0.7s0.1,0.6,0.4,0.7c0.3,0.1,0.7,0.2,0.8,0.2C13.9,17,14.1,17.1,14.2,17.2z M12,18.5c0.2-0.4,0.1-0.7-0.3-0.8
	l-0.1,0c-0.4-0.1-0.6-0.5-0.5-0.9l0-0.1c0.1-0.4-0.1-0.7-0.6-0.7h-2c-0.4,0-0.9,0.3-1.1,0.7l-1.3,2.9c-0.2,0.4,0,0.8,0.4,0.8L9.7,21
	c0.4,0.1,0.9-0.1,1.1-0.5L12,18.5z M20.3,9c-0.4-0.1-0.9,0.1-1.1,0.5l-1.3,2.2c-0.2,0.4-0.1,0.7,0.3,0.8l0.2,0
	c0.4,0.1,0.6,0.5,0.5,0.9l0,0.1c-0.1,0.4,0.1,0.7,0.6,0.7h1.9c0.4,0,0.9-0.3,1.1-0.7l1.4-3.1c0.2-0.4,0-0.8-0.4-0.8L20.3,9z
	 M22.6,16.5c-0.2-0.4-0.7-0.7-1.1-0.7h-2c-0.4,0-0.7,0.3-0.6,0.7l0,0.1c0.1,0.4-0.1,0.8-0.5,0.9l-0.1,0c-0.4,0.1-0.6,0.5-0.3,0.8
	l1.2,2c0.2,0.4,0.7,0.6,1.1,0.5l3.2-0.7c0.4-0.1,0.6-0.5,0.4-0.8L22.6,16.5z M16.7,19.4c-0.2-0.4-0.6-0.4-0.8,0l-0.4,0.6
	c-0.2,0.3-0.6,0.3-0.9,0l-0.4-0.6c-0.2-0.3-0.6-0.3-0.8,0l-1.2,2c-0.2,0.4-0.1,0.9,0.1,1.2l2.2,2.2c0.3,0.3,0.8,0.3,1,0l2.2-2.2
	c0.3-0.3,0.4-0.8,0.1-1.2L16.7,19.4z M10.5,14.3c0.4,0,0.7-0.3,0.6-0.7l0-0.1c-0.1-0.4,0.1-0.8,0.5-0.9l0.1,0
	c0.4-0.1,0.6-0.5,0.3-0.8l-1.3-2.2C10.6,9.1,10.1,8.9,9.7,9L6.5,9.7c-0.4,0.1-0.6,0.5-0.4,0.8l1.4,3.1c0.2,0.4,0.7,0.7,1.1,0.7H10.5
	z M13.4,10.8c0.2,0.4,0.6,0.4,0.8,0l0.4-0.5c0.2-0.3,0.6-0.3,0.9,0l0.4,0.5c0.2,0.3,0.6,0.3,0.8,0l1.2-2.1c0.2-0.4,0.1-0.9-0.1-1.2
	l-2.2-2.3c-0.3-0.3-0.8-0.3-1,0l-2.2,2.3c-0.3,0.3-0.4,0.8-0.1,1.2L13.4,10.8z"/>
</svg>
