<?xml version="1.0" encoding="utf-8"?>
<!-- Generator: Adobe Illustrator 26.2.1, SVG Export Plug-In . SVG Version: 6.00 Build 0)  -->
<svg version="1.1" id="레이어_1" xmlns="http://www.w3.org/2000/svg" xmlns:xlink="http://www.w3.org/1999/xlink" x="0px"
	 y="0px" viewBox="0 0 120 30" style="enable-background:new 0 0 120 30;" xml:space="preserve">
<style type="text/css">
	.st0{fill:#171F31;}
	.st1{fill:#03226E;}
	.st2{fill:none;}
	.st3{fill:#55C2B9;}
	.st4{fill:#111C4E;}
	.st5{fill:#0C1D3E;}
</style>
<path class="st0" d="M43.9,16.4c-0.4,0.3-0.5,1-0.2,1.4l0,0l3.1,3.7c0.4,0.4,1,0.5,1.4,0.1l0,0c0.4-0.3,0.5-1,0.2-1.4l0,0l-3.1-3.7
	C45,16.1,44.4,16,43.9,16.4z"/>
<path class="st0" d="M104,20.4c0,0.5,0.4,1,1,1l0,0h8.2c0.5,0,0.5-2,0-2H105C104.4,19.4,104,19.9,104,20.4z"/>
<path class="st0" d="M104.9,10.3h8.5c0.5,0,0.3-2-0.2-2h-8.3C104.3,8.3,104.4,10.3,104.9,10.3z"/>
<path class="st1" d="M42.4,8.1c-3.7,0-6.6,3-6.6,6.7s3,6.7,6.6,6.7s6.6-3,6.6-6.7S46,8.1,42.4,8.1z M42.4,19.7
	c-2.6,0-4.7-2.2-4.7-4.8s2.1-4.8,4.7-4.8c2.6,0,4.7,2.2,4.7,4.8S44.9,19.7,42.4,19.7z"/>
<path class="st1" d="M105.8,21c-0.3,0.5-1,0.6-1.5,0.2l0,0c-0.5-0.3-0.6-1-0.2-1.5l8.2-11c0.3-0.5,1-0.6,1.5-0.2l0,0l0,0
	c0.5,0.3,0.6,1,0.2,1.5L105.8,21z"/>
<circle class="st1" cx="113.2" cy="20.4" r="1"/>
<circle class="st1" cx="104.9" cy="9.3" r="1"/>
<path class="st1" d="M63,9.5c0-0.1,0-0.2,0-0.3l0,0c-0.1-0.6-0.5-1-1.1-0.9c-0.5,0-0.9,0.5-0.9,1v0.1v0.2c0,2.5,0,4.2,0,6.7
	c0,1.9-1.1,3.1-2.9,3.2c-1.6,0.1-2.9-0.8-3.3-2.2c-0.1-0.4-0.1-0.9-0.1-1.3c0-2.4,0-4.3,0-6.7l0,0l0,0c0-0.6-0.4-1-1-1s-1,0.4-1,1
	l0,0c0,2.2,0,3.9,0,6.1c0,0.5,0,1,0.1,1.5c0.2,1.9,1.1,3.3,2.8,4.1c1.5,0.7,3.2,0.7,4.6,0.1c1.3-0.5,2.2-1.5,2.6-2.8
	c0.2-0.7,0.3-1.4,0.3-2C63,13.6,63,12,63,9.5z"/>
<path class="st2" d="M68.9,17.3h4.3L71.1,12C70.3,13.8,69.6,15.6,68.9,17.3z"/>
<path class="st2" d="M68.9,17.3h4.3L71.1,12C70.3,13.8,69.6,15.6,68.9,17.3z"/>
<path class="st3" d="M81.7,20.3v-0.1v0.2C81.7,20.3,81.7,20.3,81.7,20.3z"/>
<path class="st3" d="M79.7,20.3L79.7,20.3L79.7,20.3C79.7,20.2,79.7,20.2,79.7,20.3z"/>
<path class="st3" d="M89,19.8l0.1,0.1C89.1,19.8,89.1,19.8,89,19.8z"/>
<path class="st3" d="M87.6,21L87.6,21z"/>
<path class="st3" d="M96.4,21.3L96.4,21.3z"/>
<path class="st4" d="M101.8,9.2L101.8,9.2v0.2C101.8,9.3,101.8,9.3,101.8,9.2z"/>
<path class="st1" d="M101,8.3h-8.9h-0.2c-0.5,0.1-0.9,0.5-0.8,1c0,0.4,0.4,0.8,0.8,0.8h0.2h3.3v10.1c0,0,0,0,0,0.1c0,0,0,0,0,0.1
	c0,0.5,0.5,1,1,1l0,0c0.6,0,1-0.5,1-1l0,0l0,0V10.2h3.2h0.3c0.4,0,0.7-0.4,0.8-0.8V9.1C101.7,8.7,101.4,8.4,101,8.3z"/>
<path class="st2" d="M68.9,17.4h4.3c-0.7-1.8-1.4-3.5-2.1-5.4C70.3,13.8,69.6,15.6,68.9,17.4z"/>
<path class="st5" d="M70.4,8.7v0.1l0,0V8.7L70.4,8.7z"/>
<path class="st5" d="M71.1,8.3L71.1,8.3L71.1,8.3L71.1,8.3z"/>
<path class="st5" d="M71.7,8.7c0,0.1,0,0.1,0.1,0.2C71.7,8.8,71.7,8.7,71.7,8.7z"/>
<path class="st1" d="M76.5,20c0-0.1-0.1-0.2-0.1-0.2l0,0C75,16.7,73.1,12,71.7,8.9c0-0.1,0-0.1-0.1-0.2c-0.1-0.2-0.3-0.3-0.6-0.4
	l0,0c-0.2,0-0.5,0.2-0.6,0.4c0,0,0,0.1-0.1,0.1c-1.6,3.7-3.2,7.4-4.7,11.1c0,0,0,0.1-0.1,0.2c0,0.1-0.1,0.2-0.1,0.3c0,0.6,0.4,1,1,1
	l0,0c0.4,0,0.7-0.2,0.9-0.6c0-0.1,0-0.1,0.1-0.2c0.3-0.7,0.6-1.5,0.6-1.5c0.1,0,0.2,0,0.3,0c1.8,0,3.7,0,5.5,0c0,0,0.4,0.9,0.7,1.5
	v0.1c0.2,0.3,0.5,0.5,0.8,0.5h0.1h0.1h0.1c0.3-0.1,0.6-0.3,0.7-0.5c0-0.1,0-0.1,0.1-0.2C76.6,20.5,76.6,20.2,76.5,20z M68.9,17.4
	c0.7-1.8,1.4-3.6,2.2-5.4c0.7,1.9,1.4,3.6,2.1,5.4H68.9z"/>
<path class="st2" d="M84.9,10.2c-1-0.1-2.1,0-3.2,0c0,1.4,0,4.3,0,4.3s2.1,0,3,0c1.1-0.1,1.8-0.9,1.9-2C86.7,11.3,86,10.3,84.9,10.2
	z"/>
<path class="st1" d="M89.1,20L89,19.9c-0.9-1.3-1.9-2.6-2.7-3.8c0.3-0.2,0.7-0.4,1-0.6c1.4-1.1,1.7-2.6,1.3-4.2
	c-0.3-1.5-1.7-2.7-3.2-2.8c-1.6-0.1-3.2-0.1-4.9-0.1h-0.2c-0.3,0-0.6,0.2-0.6,0.5c0,0,0,0,0,0.1v11.5c0,0.5,0.5,0.9,1,1l0,0
	c0.4,0,0.7-0.2,0.9-0.6l0.1-0.2c0-0.1,0-0.1,0-0.2v-4.1H84c0,0,2.2,3,3.5,4.7l0,0c0.2,0.2,0.4,0.3,0.7,0.4l0,0
	c0.3,0,0.7-0.2,0.8-0.5l0.1-0.1c0-0.1,0-0.2,0-0.3C89.2,20.3,89.2,20.1,89.1,20z M84.8,14.4h-3c0,0,0-2.9,0-4.3c1.1,0,2.1-0.1,3.2,0
	s1.8,1,1.7,2.2S85.9,14.3,84.8,14.4L84.8,14.4z"/>
<path class="st1" d="M3.8,0h22.5c2,0,3.7,1.7,3.7,3.8v22.5c0,2.1-1.7,3.8-3.8,3.8H3.8C1.7,30,0,28.3,0,26.2V3.8C0,1.7,1.7,0,3.8,0z
	 M14.2,17.2c0.1,0.1,0.3,0.4,0.5,0.7c0.2,0.3,0.5,0.3,0.7,0s0.4-0.6,0.5-0.7s0.2-0.2,0.3-0.2s0.5-0.1,0.8-0.2s0.5-0.4,0.4-0.7
	c-0.1-0.3-0.2-0.6-0.2-0.7c0-0.1,0-0.2,0-0.3s0.1-0.4,0.2-0.7s-0.1-0.7-0.4-0.7s-0.7-0.2-0.8-0.2c-0.1,0-0.3-0.1-0.3-0.2
	c-0.1-0.1-0.3-0.4-0.5-0.7s-0.5-0.3-0.7,0s-0.4,0.6-0.5,0.7c-0.1,0.1-0.2,0.2-0.3,0.2s-0.5,0.1-0.8,0.2s-0.5,0.4-0.4,0.7
	s0.2,0.6,0.2,0.7c0,0.1,0,0.2,0,0.3s-0.1,0.4-0.2,0.7c-0.1,0.3,0.1,0.6,0.4,0.7c0.3,0.1,0.7,0.2,0.8,0.2
	C13.9,17,14.1,17.1,14.2,17.2z M12,18.5c0.2-0.4,0.1-0.7-0.3-0.8h-0.1c-0.4-0.1-0.6-0.5-0.5-0.9v-0.1c0.1-0.4-0.1-0.7-0.6-0.7h-2
	c-0.4,0-0.9,0.3-1.1,0.7l-1.3,2.9c-0.2,0.4,0,0.8,0.4,0.8L9.7,21c0.4,0.1,0.9-0.1,1.1-0.5L12,18.5z M20.3,9
	c-0.4-0.1-0.9,0.1-1.1,0.5l-1.3,2.2c-0.2,0.4-0.1,0.7,0.3,0.8h0.2c0.4,0.1,0.6,0.5,0.5,0.9v0.1c-0.1,0.4,0.1,0.7,0.6,0.7h1.9
	c0.4,0,0.9-0.3,1.1-0.7l1.4-3.1c0.2-0.4,0-0.8-0.4-0.8L20.3,9z M22.6,16.5c-0.2-0.4-0.7-0.7-1.1-0.7h-2c-0.4,0-0.7,0.3-0.6,0.7v0.1
	c0.1,0.4-0.1,0.8-0.5,0.9h-0.1c-0.4,0.1-0.6,0.5-0.3,0.8l1.2,2c0.2,0.4,0.7,0.6,1.1,0.5l3.2-0.7c0.4-0.1,0.6-0.5,0.4-0.8L22.6,16.5z
	 M16.7,19.4c-0.2-0.4-0.6-0.4-0.8,0L15.5,20c-0.2,0.3-0.6,0.3-0.9,0l-0.4-0.6c-0.2-0.3-0.6-0.3-0.8,0l-1.2,2
	c-0.2,0.4-0.1,0.9,0.1,1.2l2.2,2.2c0.3,0.3,0.8,0.3,1,0l2.2-2.2c0.3-0.3,0.4-0.8,0.1-1.2L16.7,19.4z M10.5,14.3
	c0.4,0,0.7-0.3,0.6-0.7v-0.1c-0.1-0.4,0.1-0.8,0.5-0.9h0.1c0.4-0.1,0.6-0.5,0.3-0.8l-1.3-2.2c-0.1-0.5-0.6-0.7-1-0.6L6.5,9.7
	c-0.4,0.1-0.6,0.5-0.4,0.8l1.4,3.1c0.2,0.4,0.7,0.7,1.1,0.7H10.5z M13.4,10.8c0.2,0.4,0.6,0.4,0.8,0l0.4-0.5c0.2-0.3,0.6-0.3,0.9,0
	l0.4,0.5c0.2,0.3,0.6,0.3,0.8,0l1.2-2.1c0.2-0.4,0.1-0.9-0.1-1.2l-2.2-2.3c-0.3-0.3-0.8-0.3-1,0l-2.2,2.3c-0.3,0.3-0.4,0.8-0.1,1.2
	L13.4,10.8z"/>
</svg>
